<svg id="Layer_1" data-name="Layer 1" xmlns="http://www.w3.org/2000/svg" xmlns:xlink="http://www.w3.org/1999/xlink" viewBox="0 0 1100 900"><defs><style>.cls-1{fill:url(#linear-gradient);}.cls-2{fill:url(#linear-gradient-2);}.cls-3{opacity:0.5;fill:url(#linear-gradient-3);}.cls-4,.cls-5{fill:#fff;}.cls-5{opacity:0.6;}.cls-6{opacity:0.69;}.cls-7{fill:url(#linear-gradient-4);}.cls-8{fill:url(#linear-gradient-5);}.cls-9{fill:url(#linear-gradient-6);}.cls-10{fill:url(#linear-gradient-7);}.cls-11{fill:url(#linear-gradient-8);}.cls-12{fill:url(#linear-gradient-9);}.cls-13{fill:url(#linear-gradient-10);}.cls-14{fill:url(#linear-gradient-11);}.cls-15{fill:url(#linear-gradient-12);}.cls-16{fill:url(#linear-gradient-13);}.cls-17{fill:url(#linear-gradient-14);}.cls-18{fill:url(#linear-gradient-15);}.cls-19{fill:url(#linear-gradient-16);}.cls-20{fill:url(#linear-gradient-17);}.cls-21{fill:url(#linear-gradient-18);}.cls-22{fill:url(#linear-gradient-19);}.cls-23{fill:url(#linear-gradient-20);}.cls-24{fill:url(#linear-gradient-21);}.cls-25{fill:url(#linear-gradient-22);}.cls-26{fill:url(#linear-gradient-23);}.cls-27{fill:url(#linear-gradient-24);}.cls-28{fill:url(#linear-gradient-25);}.cls-29{fill:url(#linear-gradient-26);}.cls-30{fill:url(#linear-gradient-27);}.cls-31{fill:url(#linear-gradient-28);}.cls-32{fill:url(#linear-gradient-29);}.cls-33{fill:url(#linear-gradient-30);}.cls-34{fill:#666694;}.cls-35{fill:url(#linear-gradient-31);}.cls-36{fill:url(#linear-gradient-32);}.cls-37{fill:url(#linear-gradient-33);}.cls-38{fill:url(#linear-gradient-34);}.cls-39{fill:url(#linear-gradient-35);}.cls-40{fill:url(#linear-gradient-36);}.cls-41{fill:url(#linear-gradient-37);}.cls-42{fill:url(#linear-gradient-38);}.cls-43{fill:url(#linear-gradient-39);}.cls-44{fill:url(#linear-gradient-40);}</style><linearGradient id="linear-gradient" x1="887.28" y1="111.49" x2="208.35" y2="628.43" gradientUnits="userSpaceOnUse"><stop offset="0" stop-color="#2b3582"/><stop offset="1" stop-color="#150e42"/></linearGradient><linearGradient id="linear-gradient-2" x1="877.45" y1="118.85" x2="221.25" y2="618.48" gradientUnits="userSpaceOnUse"><stop offset="0" stop-color="#a737d5"/><stop offset="1" stop-color="#ef497a"/></linearGradient><linearGradient id="linear-gradient-3" x1="857.53" y1="133.9" x2="232.67" y2="609.67" gradientUnits="userSpaceOnUse"><stop offset="0" stop-color="#b37cff"/><stop offset="1" stop-color="#f895e7"/></linearGradient><linearGradient id="linear-gradient-4" x1="722.01" y1="425.63" x2="693.83" y2="512.01" gradientUnits="userSpaceOnUse"><stop offset="0" stop-color="#f9b776"/><stop offset="1" stop-color="#f47960"/></linearGradient><linearGradient id="linear-gradient-5" x1="721.38" y1="280.04" x2="521.95" y2="687.02" gradientUnits="userSpaceOnUse"><stop offset="0" stop-color="#fdf53f"/><stop offset="1" stop-color="#d93c65"/></linearGradient><linearGradient id="linear-gradient-6" x1="716.05" y1="732.59" x2="775.43" y2="732.59" xlink:href="#linear-gradient-4"/><linearGradient id="linear-gradient-7" x1="797.67" y1="599.8" x2="768.26" y2="790.94" gradientUnits="userSpaceOnUse"><stop offset="0" stop-color="#53d8ff"/><stop offset="1" stop-color="#3840f7"/></linearGradient><linearGradient id="linear-gradient-8" x1="735.44" y1="590.23" x2="706.04" y2="781.37" xlink:href="#linear-gradient-7"/><linearGradient id="linear-gradient-9" x1="680.01" y1="737.01" x2="714.4" y2="737.01" xlink:href="#linear-gradient-4"/><linearGradient id="linear-gradient-10" x1="605.94" y1="479.02" x2="673.26" y2="479.02" xlink:href="#linear-gradient-4"/><linearGradient id="linear-gradient-11" x1="679.71" y1="515.62" x2="805.91" y2="765.58" xlink:href="#linear-gradient-5"/><linearGradient id="linear-gradient-12" x1="649.65" y1="581.67" x2="759.93" y2="706.03" xlink:href="#linear-gradient-7"/><linearGradient id="linear-gradient-13" x1="690.44" y1="512.07" x2="711.48" y2="512.07" xlink:href="#linear-gradient-4"/><linearGradient id="linear-gradient-14" x1="723.88" y1="484.88" x2="877.04" y2="495.29" xlink:href="#linear-gradient-4"/><linearGradient id="linear-gradient-15" x1="749.06" y1="475.65" x2="695.14" y2="583.47" gradientUnits="userSpaceOnUse"><stop offset="0" stop-color="#cb236d"/><stop offset="1" stop-color="#4c246d"/></linearGradient><linearGradient id="linear-gradient-16" x1="280.35" y1="644.23" x2="351.19" y2="644.23" gradientUnits="userSpaceOnUse"><stop offset="0" stop-color="#9cfffb"/><stop offset="1" stop-color="#9bfffa"/></linearGradient><linearGradient id="linear-gradient-17" x1="131.34" y1="646.39" x2="213.41" y2="646.39" xlink:href="#linear-gradient-16"/><linearGradient id="linear-gradient-18" x1="187.95" y1="557.2" x2="303.29" y2="557.2" xlink:href="#linear-gradient-16"/><linearGradient id="linear-gradient-19" x1="190.04" y1="557.2" x2="301.2" y2="557.2" xlink:href="#linear-gradient-16"/><linearGradient id="linear-gradient-20" x1="187.95" y1="617.28" x2="303.29" y2="617.28" xlink:href="#linear-gradient-16"/><linearGradient id="linear-gradient-21" x1="174.91" y1="617.28" x2="313.03" y2="617.28" xlink:href="#linear-gradient-16"/><linearGradient id="linear-gradient-22" x1="187.95" y1="677.36" x2="303.29" y2="677.36" xlink:href="#linear-gradient-16"/><linearGradient id="linear-gradient-23" x1="161.71" y1="677.36" x2="325.45" y2="677.36" xlink:href="#linear-gradient-16"/><linearGradient id="linear-gradient-24" x1="149.2" y1="737.45" x2="303.29" y2="737.45" xlink:href="#linear-gradient-16"/><linearGradient id="linear-gradient-25" x1="149.2" y1="737.45" x2="335.5" y2="737.45" xlink:href="#linear-gradient-16"/><linearGradient id="linear-gradient-26" x1="199.47" y1="547.65" x2="223.03" y2="547.65" xlink:href="#linear-gradient"/><linearGradient id="linear-gradient-27" x1="201.86" y1="536.7" x2="211.41" y2="536.7" xlink:href="#linear-gradient-4"/><linearGradient id="linear-gradient-28" x1="249.57" y1="547.27" x2="286.53" y2="547.27" xlink:href="#linear-gradient"/><linearGradient id="linear-gradient-29" x1="250.13" y1="532.46" x2="259.63" y2="532.46" xlink:href="#linear-gradient-4"/><linearGradient id="linear-gradient-30" x1="195.92" y1="448.17" x2="260.7" y2="448.17" xlink:href="#linear-gradient"/><linearGradient id="linear-gradient-31" x1="303.23" y1="181.18" x2="283.9" y2="288.07" xlink:href="#linear-gradient-5"/><linearGradient id="linear-gradient-32" x1="313.71" y1="254.22" x2="349.02" y2="254.22" xlink:href="#linear-gradient-4"/><linearGradient id="linear-gradient-33" x1="281.22" y1="244.73" x2="261.88" y2="427.81" xlink:href="#linear-gradient-15"/><linearGradient id="linear-gradient-34" x1="393.67" y1="261.92" x2="317.36" y2="356.85" xlink:href="#linear-gradient-4"/><linearGradient id="linear-gradient-35" x1="408.14" y1="273.55" x2="331.83" y2="368.48" xlink:href="#linear-gradient-4"/><linearGradient id="linear-gradient-36" x1="307.83" y1="204.55" x2="233.92" y2="340.34" xlink:href="#linear-gradient-4"/><linearGradient id="linear-gradient-37" x1="-119.76" y1="3180.79" x2="-152.42" y2="3224" gradientTransform="translate(-1451.98 -2438.2) rotate(-35.22)" xlink:href="#linear-gradient-4"/><linearGradient id="linear-gradient-38" x1="-144.71" y1="3191.21" x2="-105.69" y2="3191.21" gradientTransform="translate(-1451.98 -2438.2) rotate(-35.22)" xlink:href="#linear-gradient"/><linearGradient id="linear-gradient-39" x1="-167.6" y1="3215.01" x2="-141.4" y2="3188.13" gradientTransform="translate(-1451.98 -2438.2) rotate(-35.22)" xlink:href="#linear-gradient-4"/><linearGradient id="linear-gradient-40" x1="571.08" y1="72.2" x2="234" y2="577.82" xlink:href="#linear-gradient-16"/></defs><path class="cls-1" d="M156,110.64l767.4-13c30.89-.52,55.69,26,53.85,57.55L950.86,609.46c-1.44,24.87-21.44,44.34-45.77,44.58l-737.65,7.29c-18.22.19-33.28-14.51-34-33.14L115.82,154.1C115,130.63,133.09,111,156,110.64Z"/><path class="cls-2" d="M167.78,122.21l747.37-12.34a51.68,51.68,0,0,1,52.45,54.75L941.88,596.8a45.08,45.08,0,0,1-44.58,42.4l-718.4,6.95a32.8,32.8,0,0,1-33.08-31.54l-17.19-451A39.84,39.84,0,0,1,167.78,122.21Z"/><path class="cls-3" d="M181.76,137.1l711.67-11.74a49.22,49.22,0,0,1,50,52.13L918.88,589a42.93,42.93,0,0,1-42.44,40.39L192.35,636a31.22,31.22,0,0,1-31.5-30l-16.37-429.5A37.93,37.93,0,0,1,181.76,137.1Z"/><path class="cls-4" d="M144.46,191.45a2.5,2.5,0,1,1,0-5L949.9,184.7h0a2.5,2.5,0,1,1,0,5Z"/><path class="cls-4" d="M344,630.67a2.49,2.49,0,0,1-2.5-2.46l-6.85-482.74a2.5,2.5,0,0,1,5-.07l6.85,482.74a2.5,2.5,0,0,1-2.47,2.53Z"/><path class="cls-4" d="M560.39,630.67a2.5,2.5,0,0,1-2.5-2.5V135.61a2.5,2.5,0,0,1,5,0V628.17A2.5,2.5,0,0,1,560.39,630.67Z"/><path class="cls-4" d="M776.37,630.67a2.5,2.5,0,0,1-2.5-2.47l-6.08-492.55a2.5,2.5,0,1,1,5-.07l6.08,492.56a2.49,2.49,0,0,1-2.47,2.53Z"/><path class="cls-5" d="M164.19,164.38c0,6.43,2.37,11.64,5.29,11.64H298.54c2.92,0,5.28-5.21,5.28-11.64s-2.36-11.63-5.28-11.63H169.48C166.56,152.75,164.19,158,164.19,164.38Z"/><path class="cls-5" d="M362.29,164.38c0,6.43,2.9,11.64,6.46,11.64H526.48c3.56,0,6.46-5.21,6.46-11.64s-2.9-11.63-6.46-11.63H368.75C365.19,152.75,362.29,158,362.29,164.38Z"/><path class="cls-5" d="M581.8,162.65c0,6.43,3,11.64,6.71,11.64H752.34c3.7,0,6.71-5.21,6.71-11.64S756,151,752.34,151H588.51C584.8,151,581.8,156.22,581.8,162.65Z"/><path class="cls-5" d="M796.64,162.65c0,6.43,2.36,11.64,5.28,11.64H931c2.92,0,5.29-5.21,5.29-11.64S933.9,151,931,151H801.92C799,151,796.64,156.22,796.64,162.65Z"/><g class="cls-6"><path class="cls-4" d="M933.05,299.88h-.32l-129.91-3.4a10.22,10.22,0,0,1-10-10.28V216.83a8.52,8.52,0,0,1,8.52-8.51H941.79a8.56,8.56,0,0,1,8.54,9.16l-5.1,71.06A12.19,12.19,0,0,1,933.05,299.88ZM801.32,210.32a6.53,6.53,0,0,0-6.52,6.51V286.2a8.23,8.23,0,0,0,8.07,8.28l129.91,3.4a10.16,10.16,0,0,0,10.46-9.48l5.09-71.06a6.54,6.54,0,0,0-6.54-7Z"/><path class="cls-4" d="M932.32,233.13h0L826,230.24a1,1,0,0,1,0-2l106.35,2.89a1,1,0,0,1,0,2Z"/><path class="cls-4" d="M815.23,234.23h0A6,6,0,0,1,811,224a5.94,5.94,0,0,1,4.23-1.75h0a6,6,0,0,1,0,12Zm0-10a4,4,0,0,0,0,8h0a4,4,0,0,0,0-8Z"/><path class="cls-4" d="M932.91,253.72h0l-106.35-2.89a1,1,0,0,1-1-1,1,1,0,0,1,1-1l106.35,2.89a1,1,0,0,1,0,2Z"/><path class="cls-4" d="M815.82,254.82h0a6,6,0,0,1,0-12h0a6,6,0,0,1,0,12Zm0-10a4,4,0,0,0-4,4,4,4,0,0,0,4,4h0a4,4,0,0,0,4-4,4,4,0,0,0-4-4Z"/><path class="cls-4" d="M889,273.11h0l-61.85-1.69a1,1,0,0,1,.06-2L889,271.11a1,1,0,0,1,1,1A1,1,0,0,1,889,273.11Z"/><path class="cls-4" d="M816.4,275.41h0a6,6,0,0,1,0-12h0a6,6,0,0,1,6,6,6,6,0,0,1-6,6Zm0-10a3.92,3.92,0,0,0-2.81,1.17,4,4,0,0,0,2.81,6.81h0a4,4,0,0,0,4-4,4,4,0,0,0-4-4Z"/></g><g class="cls-6"><path class="cls-4" d="M926.74,413.13h-.33L802.5,408a10.22,10.22,0,0,1-10-10.28V328.37a8.52,8.52,0,0,1,8.52-8.51l134.47,1.7a8.56,8.56,0,0,1,8.52,9.17l-5.09,71.06A12.2,12.2,0,0,1,926.74,413.13ZM801,321.86a6.52,6.52,0,0,0-6.51,6.51v69.37a8.23,8.23,0,0,0,8.07,8.28l123.91,5.11a10.19,10.19,0,0,0,10.44-9.49L942,330.59a6.56,6.56,0,0,0-6.53-7Z"/><path class="cls-4" d="M926,346.38h0l-100.33-4.6a1,1,0,0,1-1-1,1,1,0,0,1,1-1l100.33,4.6a1,1,0,0,1,0,2Z"/><path class="cls-4" d="M814.93,345.77h0a6,6,0,0,1,0-12h0a6,6,0,1,1,0,12Zm0-10a4,4,0,1,0,0,8h0a4,4,0,0,0,0-8Zm5,4h0Z"/><path class="cls-4" d="M926.59,367h0l-100.34-4.6a1,1,0,1,1,.1-2L926.64,365a1,1,0,0,1,0,2Z"/><path class="cls-4" d="M815.52,366.36h0a6,6,0,0,1-6-6,6,6,0,0,1,6-6h0a6,6,0,1,1,0,12Zm0-10a4,4,0,0,0-4,4,4,4,0,0,0,4,4h0a4,4,0,1,0,0-8Z"/><path class="cls-4" d="M888.7,384.65h0L826.82,383a1,1,0,0,1-1-1,1,1,0,0,1,1-1l61.86,1.69a1,1,0,0,1,1,1A1,1,0,0,1,888.7,384.65Z"/><path class="cls-4" d="M816.1,387h0a6,6,0,0,1,0-12h0a6,6,0,0,1,0,12Zm0-10a4,4,0,0,0-4,4,4,4,0,0,0,4,4h0a4,4,0,0,0,4-4,4,4,0,0,0-4-4Z"/></g><g class="cls-6"><path class="cls-4" d="M375.36,335.79c-6.07,0-11-5.4-11.37-12.47l-4.3-90.95c-.28-6,3.7-11.11,8.87-11.44l157-10.14a8.61,8.61,0,0,1,6.55,2.47,11.64,11.64,0,0,1,3.44,8.61l-1.28,93.53c-.12,8.42-5.89,15.22-13.15,15.46l-145.41,4.93ZM361.69,232.28l4.3,90.94c.28,6,4.6,10.72,9.65,10.57l145.41-4.93c6.19-.21,11.12-6.13,11.22-13.49l1.28-93.53a9.61,9.61,0,0,0-2.82-7.13,6.62,6.62,0,0,0-5-1.92l-157,10.13C364.6,223.19,361.46,227.38,361.69,232.28Z"/><path class="cls-4" d="M397.42,247.27a1,1,0,0,1-1-1,1,1,0,0,1,1-1l119-3.89h0a1,1,0,0,1,0,2l-119,3.88Z"/><path class="cls-4" d="M385.35,253.29a6,6,0,0,1-4.06-1.61,7.94,7.94,0,0,1-2.52-5.55c-.19-4.15,2.6-7.71,6.21-7.94a6,6,0,0,1,4.42,1.59,7.92,7.92,0,0,1,2.52,5.56c.19,4.15-2.59,7.71-6.21,7.94Zm0-13.11h-.23c-2.54.16-4.48,2.78-4.34,5.85a5.94,5.94,0,0,0,1.85,4.16,4.1,4.1,0,0,0,3,1.08c2.54-.16,4.49-2.78,4.35-5.85a6,6,0,0,0-1.86-4.16A4.13,4.13,0,0,0,385.34,240.18Z"/><path class="cls-4" d="M399.35,274.23a1,1,0,0,1,0-2l119-3.89a1,1,0,0,1,1,1,1,1,0,0,1-1,1l-119,3.88Z"/><path class="cls-4" d="M387.28,280.24a6.07,6.07,0,0,1-4.06-1.6,8,8,0,0,1-2.52-5.56c-.19-4.15,2.6-7.71,6.22-7.93a6,6,0,0,1,4.42,1.59,7.94,7.94,0,0,1,2.52,5.55c.19,4.15-2.6,7.71-6.22,7.94Zm0-13.11H387c-2.53.16-4.48,2.78-4.34,5.85a5.94,5.94,0,0,0,1.86,4.16,4.09,4.09,0,0,0,3,1.08c2.53-.16,4.48-2.78,4.34-5.85a5.92,5.92,0,0,0-1.86-4.15A4.09,4.09,0,0,0,387.28,267.13Z"/><path class="cls-4" d="M401.28,301.18a1,1,0,0,1,0-2l69.24-2.26h0a1,1,0,0,1,0,2l-69.23,2.26Z"/><path class="cls-4" d="M389.21,307.19a6,6,0,0,1-4-1.6,7.92,7.92,0,0,1-2.52-5.56c-.19-4.15,2.59-7.71,6.21-7.93a6,6,0,0,1,4.42,1.59,7.94,7.94,0,0,1,2.52,5.55c.19,4.15-2.6,7.71-6.21,7.94Zm0-13.1H389c-2.54.16-4.49,2.79-4.35,5.85a6,6,0,0,0,1.86,4.16,4,4,0,0,0,3,1.08c2.53-.15,4.48-2.78,4.34-5.84a5.92,5.92,0,0,0-1.85-4.16A4.08,4.08,0,0,0,389.21,294.09Z"/></g><g class="cls-6"><path class="cls-4" d="M379.94,419.82c-6.06,0-11-3.47-11.37-8l-4.3-55.95a5.8,5.8,0,0,1,1.56-4.35,10.24,10.24,0,0,1,7.33-3.12l157-6.24a11,11,0,0,1,8,2.77,6,6,0,0,1,1.93,4.45l-1.29,57.53c-.12,5.39-5.9,9.74-13.16,9.89l-145.41,3Zm150.74-75.68h-.44l-157,6.23a8.47,8.47,0,0,0-5.91,2.45,3.85,3.85,0,0,0-1.07,2.88l4.3,55.94c.27,3.51,4.6,6.27,9.67,6.17l145.41-3c6.18-.13,11.11-3.61,11.2-7.93l1.29-57.54a4.06,4.06,0,0,0-1.34-3A8.76,8.76,0,0,0,530.68,344.14Z"/><path class="cls-4" d="M402,365.36a1,1,0,0,1-1-1,1,1,0,0,1,1-1L521,361a1,1,0,0,1,1,1,1,1,0,0,1-1,1l-119,2.39Z"/><path class="cls-4" d="M389.91,369.06c-3.51,0-6.36-2-6.56-4.74a4.15,4.15,0,0,1,1.13-3.14,7.17,7.17,0,0,1,5.1-2.17c3.67-.14,6.71,1.94,6.92,4.73a4.21,4.21,0,0,1-1.13,3.14,7.22,7.22,0,0,1-5.11,2.18Zm0-8.06h-.26a5.2,5.2,0,0,0-3.69,1.51,2.25,2.25,0,0,0-.63,1.65c.12,1.66,2.34,3,4.84,2.89a5.25,5.25,0,0,0,3.69-1.51,2.24,2.24,0,0,0,.63-1.66C394.38,362.29,392.31,361,389.92,361Z"/><path class="cls-4" d="M403.93,382a1,1,0,0,1-1-1,1,1,0,0,1,1-1l119-2.4h0a1,1,0,0,1,0,2L404,382Z"/><path class="cls-4" d="M391.84,385.64c-3.51,0-6.36-2-6.56-4.74a4.19,4.19,0,0,1,1.13-3.13,7.14,7.14,0,0,1,5.11-2.18c3.66-.14,6.7,1.94,6.91,4.73a4.21,4.21,0,0,1-1.13,3.14,7.18,7.18,0,0,1-5.11,2.18Zm0-8.06h-.26a5.25,5.25,0,0,0-3.69,1.51,2.29,2.29,0,0,0-.63,1.65c.13,1.66,2.34,3,4.85,2.89a5.25,5.25,0,0,0,3.69-1.51,2.32,2.32,0,0,0,.63-1.66C396.32,378.87,394.24,377.58,391.85,377.58Z"/><path class="cls-4" d="M405.86,398.53a1,1,0,0,1,0-2l69.23-1.39a1,1,0,0,1,1,1,1,1,0,0,1-1,1l-69.23,1.39Z"/><path class="cls-4" d="M393.78,402.23c-3.51,0-6.37-2-6.57-4.75a4.19,4.19,0,0,1,1.13-3.13,7.18,7.18,0,0,1,5.11-2.18c3.67-.14,6.7,1.94,6.91,4.73a4.14,4.14,0,0,1-1.13,3.14,7.17,7.17,0,0,1-5.1,2.18Zm0-8.07h-.25a5.25,5.25,0,0,0-3.69,1.51,2.21,2.21,0,0,0-.63,1.65c.12,1.66,2.34,3,4.84,2.89a5.25,5.25,0,0,0,3.69-1.51,2.26,2.26,0,0,0,.63-1.66C398.25,395.45,396.18,394.16,393.78,394.16Z"/></g><g class="cls-6"><path class="cls-4" d="M381.66,510.42c-6.06,0-11-3.47-11.37-8l-4.3-56a5.77,5.77,0,0,1,1.57-4.35,10.24,10.24,0,0,1,7.32-3.12l157-6.24a10.9,10.9,0,0,1,8,2.77,6,6,0,0,1,1.93,4.45l-1.28,57.53c-.12,5.4-5.91,9.74-13.17,9.89l-145.41,3ZM532.4,434.74H532L375,441a8.44,8.44,0,0,0-5.91,2.46,3.85,3.85,0,0,0-1.07,2.87l4.31,55.95c.27,3.5,4.6,6.24,9.66,6.16l145.41-3c6.19-.13,11.11-3.61,11.21-7.93l1.28-57.54a4.11,4.11,0,0,0-1.33-3A8.81,8.81,0,0,0,532.4,434.74Z"/><path class="cls-4" d="M403.72,456a1,1,0,0,1,0-2l119-2.39a1,1,0,0,1,1,1,1,1,0,0,1-1,1l-119,2.39Z"/><path class="cls-4" d="M391.63,459.66c-3.51,0-6.36-2-6.56-4.74a4.23,4.23,0,0,1,1.13-3.14,7.17,7.17,0,0,1,5.11-2.17c3.66-.15,6.7,1.94,6.91,4.73a4.21,4.21,0,0,1-1.13,3.14,7.2,7.2,0,0,1-5.11,2.18Zm0-8.06h-.26a5.2,5.2,0,0,0-3.69,1.51,2.29,2.29,0,0,0-.63,1.65c.13,1.66,2.35,3,4.85,2.89a5.25,5.25,0,0,0,3.69-1.51,2.32,2.32,0,0,0,.63-1.66C396.11,452.89,394,451.6,391.64,451.6Z"/><path class="cls-4" d="M405.65,472.54a1,1,0,0,1-1-1,1,1,0,0,1,1-1l119-2.39a1,1,0,0,1,1,1,1,1,0,0,1-1,1l-119,2.39Z"/><path class="cls-4" d="M393.57,476.24c-3.51,0-6.37-2-6.57-4.74a4.23,4.23,0,0,1,1.13-3.14,7.21,7.21,0,0,1,5.11-2.17c3.67-.15,6.71,1.94,6.91,4.73a4.14,4.14,0,0,1-1.13,3.14,7.17,7.17,0,0,1-5.1,2.18Zm0-8.06h-.25a5.25,5.25,0,0,0-3.69,1.51,2.21,2.21,0,0,0-.63,1.65c.12,1.66,2.34,3,4.84,2.89a5.25,5.25,0,0,0,3.69-1.51,2.27,2.27,0,0,0,.63-1.66C398,469.47,396,468.18,393.57,468.18Z"/><path class="cls-4" d="M407.58,489.13a1,1,0,0,1,0-2l69.24-1.39a1,1,0,0,1,0,2l-69.24,1.39Z"/><path class="cls-4" d="M395.5,492.82c-3.51,0-6.36-2-6.56-4.74a4.11,4.11,0,0,1,1.13-3.13,7.13,7.13,0,0,1,5.1-2.18c3.68-.15,6.71,1.94,6.92,4.74a4.19,4.19,0,0,1-1.13,3.13,7.18,7.18,0,0,1-5.11,2.18Zm0-8.06h-.26a5.25,5.25,0,0,0-3.69,1.51,2.25,2.25,0,0,0-.63,1.65c.12,1.66,2.34,3,4.84,2.89a5.25,5.25,0,0,0,3.69-1.51,2.22,2.22,0,0,0,.63-1.66C400,486.05,397.9,484.76,395.51,484.76Z"/></g><g class="cls-6"><path class="cls-4" d="M595,318.09a11.35,11.35,0,0,1-11.37-10.81l-4.3-77.86a9.44,9.44,0,0,1,8.88-9.95l157-8.68a9.34,9.34,0,0,1,7.07,2.62,9.54,9.54,0,0,1,2.91,7l-1.28,80.07a13.56,13.56,0,0,1-13.16,13.38l-145.41,4.22ZM745.75,212.77h-.43l-157,8.68a7.44,7.44,0,0,0-7,7.85l4.3,77.86a9.35,9.35,0,0,0,9.65,8.92l145.41-4.22a11.56,11.56,0,0,0,11.22-11.41l1.28-80.07a7.48,7.48,0,0,0-7.44-7.62Z"/><path class="cls-4" d="M617.06,242.31a1,1,0,0,1,0-2l119-3.33a1,1,0,0,1,1,1,1,1,0,0,1-1,1l-119,3.33Z"/><path class="cls-4" d="M605,247.46a6.54,6.54,0,0,1-4.4-1.7,6.62,6.62,0,0,1-.49-9.33,6.58,6.58,0,0,1,11.47,4.07,6.6,6.6,0,0,1-6.22,6.95Zm0-11.22h-.25a4.51,4.51,0,0,0-3.16,1.51,4.64,4.64,0,0,0,.34,6.52,4.51,4.51,0,0,0,3.31,1.17,4.61,4.61,0,0,0,2.82-8A4.53,4.53,0,0,0,605,236.24Z"/><path class="cls-4" d="M619,265.38a1,1,0,0,1,0-2l119-3.32a1,1,0,0,1,0,2l-119,3.32Z"/><path class="cls-4" d="M606.91,270.53a6.52,6.52,0,0,1-4.39-1.69,6.61,6.61,0,0,1-.5-9.33,6.53,6.53,0,0,1,4.55-2.19,6.61,6.61,0,0,1,.7,13.2Zm0-11.22h-.25a4.5,4.5,0,0,0-3.16,1.52,4.62,4.62,0,0,0,.35,6.51,4.52,4.52,0,0,0,3.31,1.17,4.61,4.61,0,0,0-.25-9.21Z"/><path class="cls-4" d="M620.92,288.46a1,1,0,0,1,0-2l69.23-1.94a1,1,0,0,1,1,1,1,1,0,0,1-1,1L621,288.46Z"/><path class="cls-4" d="M608.85,293.61a6.62,6.62,0,1,1,4.9-2.2,6.52,6.52,0,0,1-4.54,2.19Zm0-11.22h-.25a4.61,4.61,0,0,0,.49,9.21,4.61,4.61,0,0,0-.24-9.21Z"/></g><g class="cls-6"><path class="cls-4" d="M598.17,434.62a11.35,11.35,0,0,1-11.37-10.81L582.5,346a9.42,9.42,0,0,1,8.88-9.95l157-8.68a9.28,9.28,0,0,1,7.06,2.62,9.55,9.55,0,0,1,2.92,7L757.07,417a13.55,13.55,0,0,1-13.15,13.38l-145.41,4.22Zm-13.68-88.78,4.31,77.86a9.36,9.36,0,0,0,9.65,8.92l145.41-4.22A11.55,11.55,0,0,0,755.07,417l1.29-80.07a7.48,7.48,0,0,0-7.87-7.61l-157,8.68a7.44,7.44,0,0,0-7,7.85Z"/><path class="cls-4" d="M620.22,358.84a1,1,0,0,1,0-2l119-3.33a1,1,0,0,1,1,1,1,1,0,0,1-1,1l-119,3.33Z"/><path class="cls-4" d="M608.15,364a6.61,6.61,0,0,1-.35-13.21,6.61,6.61,0,0,1,.71,13.2Zm0-11.22h-.24a4.6,4.6,0,0,0-4.34,4.84,4.65,4.65,0,0,0,1.52,3.19A4.54,4.54,0,0,0,608.4,362a4.61,4.61,0,0,0-.25-9.21Z"/><path class="cls-4" d="M622.16,381.91a1,1,0,0,1,0-2l119-3.32a1,1,0,0,1,1,1,1,1,0,0,1-1,1l-119,3.32Z"/><path class="cls-4" d="M610.08,387.06a6.59,6.59,0,1,1,.36,0Zm0-11.22h-.25a4.53,4.53,0,1,0,.25,0Z"/><path class="cls-4" d="M624.09,405a1,1,0,0,1,0-2l69.24-1.94a1,1,0,0,1,1,1,1,1,0,0,1-1,1L624.12,405Z"/><path class="cls-4" d="M612,410.14a6.61,6.61,0,0,1-.35-13.21,6.61,6.61,0,0,1,.7,13.2Zm0-11.22h-.25a4.61,4.61,0,1,0,3.31,1.18A4.53,4.53,0,0,0,612,398.92Z"/></g><g class="cls-6"><path class="cls-4" d="M601.33,551.15A11.34,11.34,0,0,1,590,540.34l-4.31-77.86a9.44,9.44,0,0,1,8.88-10l157-8.68a9.24,9.24,0,0,1,7.06,2.62,9.54,9.54,0,0,1,2.92,7l-1.29,80.07a13.56,13.56,0,0,1-13.16,13.38l-145.41,4.22Zm-13.67-88.78,4.3,77.86a9.36,9.36,0,0,0,9.66,8.92L747,544.93a11.56,11.56,0,0,0,11.21-11.41l1.29-80.07a7.46,7.46,0,0,0-2.31-5.54,7.36,7.36,0,0,0-5.56-2.07l-157,8.68A7.44,7.44,0,0,0,587.66,462.37Z"/><path class="cls-4" d="M623.39,475.37a1,1,0,0,1,0-2l119-3.33a1,1,0,0,1,1,1,1,1,0,0,1-1,1l-119,3.33Z"/><path class="cls-4" d="M611.31,480.52A6.61,6.61,0,1,1,615.72,469a6.61,6.61,0,0,1-4.05,11.52Zm0-11.22h-.25a4.53,4.53,0,0,0-3.16,1.51,4.58,4.58,0,0,0-1.17,3.33,4.65,4.65,0,0,0,1.52,3.19,4.49,4.49,0,0,0,3.31,1.17,4.61,4.61,0,0,0,2.81-8A4.51,4.51,0,0,0,611.32,469.3Z"/><path class="cls-4" d="M625.32,498.44a1,1,0,0,1,0-2l119-3.32h0a1,1,0,0,1,0,2l-119,3.32Z"/><path class="cls-4" d="M613.25,503.59a6.59,6.59,0,1,1,.36,0Zm0-11.22H613a4.51,4.51,0,1,0,.24,0Z"/><path class="cls-4" d="M627.26,521.52a1,1,0,0,1,0-2l69.23-1.94a1,1,0,0,1,1,1,1,1,0,0,1-1,1l-69.24,1.94Z"/><path class="cls-4" d="M615.18,526.66a6.58,6.58,0,0,1-6.57-6.25,6.61,6.61,0,0,1,1.67-4.77,6.58,6.58,0,0,1,11.48,4.06,6.61,6.61,0,0,1-6.22,7Zm0-11.21h-.25a4.62,4.62,0,0,0-2.82,8,4.55,4.55,0,0,0,3.31,1.17,4.61,4.61,0,0,0,2.82-8A4.53,4.53,0,0,0,615.19,515.45Z"/></g><g class="cls-6"><path class="cls-4" d="M170.71,313a11.35,11.35,0,0,1-11.37-10.81L155,224.31a9.43,9.43,0,0,1,8.88-9.95l157-8.68A9.3,9.3,0,0,1,328,208.3a9.57,9.57,0,0,1,2.91,7l-1.28,80.07a13.56,13.56,0,0,1-13.16,13.38L171.05,313ZM157,224.2l4.31,77.86A9.37,9.37,0,0,0,171,311l145.41-4.22a11.56,11.56,0,0,0,11.22-11.41l1.28-80.07a7.48,7.48,0,0,0-7.87-7.61l-157,8.68A7.45,7.45,0,0,0,157,224.2Z"/><path class="cls-4" d="M192.76,237.2a1,1,0,0,1,0-2l119-3.33a1,1,0,0,1,1,1,1,1,0,0,1-1,1l-119,3.33Z"/><path class="cls-4" d="M180.69,242.35a6.59,6.59,0,1,1,.36,0Zm0-11.22h-.24a4.51,4.51,0,1,0,.24,0Z"/><path class="cls-4" d="M194.7,260.27a1,1,0,0,1,0-2l119-3.32a1,1,0,1,1,.06,2l-119,3.32Z"/><path class="cls-4" d="M182.62,265.42a6.5,6.5,0,0,1-4.39-1.69,6.61,6.61,0,0,1-.5-9.33,6.6,6.6,0,1,1,5.25,11Zm0-11.22h-.25a4.52,4.52,0,0,0-3.16,1.52,4.58,4.58,0,0,0-1.17,3.33,4.59,4.59,0,0,0,8,2.84,4.63,4.63,0,0,0-.35-6.52A4.58,4.58,0,0,0,182.63,254.2Z"/><path class="cls-4" d="M196.63,283.35a1,1,0,0,1,0-2l69.24-1.94a1,1,0,0,1,1,1,1,1,0,0,1-1,1l-69.23,1.94Z"/><path class="cls-4" d="M184.56,288.49a6.61,6.61,0,0,1-4.9-11,6.58,6.58,0,0,1,9.3-.5,6.61,6.61,0,0,1,.5,9.33,6.53,6.53,0,0,1-4.55,2.19Zm0-11.21h-.25a4.61,4.61,0,1,0,3.31,1.18A4.51,4.51,0,0,0,184.56,277.28Z"/></g><path class="cls-7" d="M694.57,432s-39.2,50.2,5.53,101.26l16.82-1.57s-32.38-52-18-93.42L722.78,440,736,431.44Z"/><path class="cls-8" d="M578.94,319.16l186.17-9.61c3.65-.19,6.72,2,6.83,4.9l4.21,112.73c.1,2.9-2.83,5.35-6.51,5.43-33.7.71-183.34,3.87-189.93,4.38s-7-90.18-7-112.56C572.68,321.67,575.44,319.35,578.94,319.16Z"/><path class="cls-4" d="M582.69,432.91l-.13-.48c-2.8-10.3-4.65-52.73-4.7-108.1a1.31,1.31,0,0,1,1.31-1.22l186.16-9.61a1.48,1.48,0,0,1,.94.26,1.19,1.19,0,0,1,.5.9L771,427.39a1.29,1.29,0,0,1-1.31,1.26h0c-26.82.57-161.88,3.42-186.44,4.24ZM765.43,314.74h0l-186.16,9.61a.22.22,0,0,0-.15,0c.07,54.38,1.85,96.25,4.56,107.24,25.83-.85,159.31-3.66,186-4.23h0a.16.16,0,0,0,.11,0L765.53,314.7S765.47,314.74,765.43,314.74Z"/><path class="cls-4" d="M700.63,332.2c.13,2.85,1.18,5.12,2.35,5.07l51.75-2.3c1.17-.06,2-2.41,1.89-5.26s-1.18-5.12-2.35-5.07L702.52,327C701.35,327,700.51,329.35,700.63,332.2Z"/><path class="cls-4" d="M700.86,346.24a2.38,2.38,0,0,0,2.23,2.49l51.75-2.31a2.63,2.63,0,0,0-.23-5.16l-51.75,2.31A2.38,2.38,0,0,0,700.86,346.24Z"/><path class="cls-4" d="M700.86,357a2.38,2.38,0,0,0,2.23,2.49l51.75-2.31a2.63,2.63,0,0,0-.23-5.16l-51.75,2.31A2.38,2.38,0,0,0,700.86,357Z"/><path class="cls-4" d="M630,419.54h-2.07a2.47,2.47,0,0,1-2.45-2.19l-4.51-38.85a2.44,2.44,0,0,1,.53-1.83,2.49,2.49,0,0,1,1.66-.92,17.46,17.46,0,0,0,6.79-2.46c1-.68,2.21-3.8,3.25-6.56,1.61-4.26,3.61-9.56,7.28-13.75,6-6.81,5-17,4.84-18.18a7.86,7.86,0,0,1,4.68-7.38c1.85-.72,5.56-1.1,9.61,4.5,5.05,7,2.84,16.41,1.38,22.64a33.4,33.4,0,0,0-.93,4.89.24.24,0,0,0,0,.12c1.26.79,7-.09,10.44-.63,1.83-.28,3.71-.57,5.55-.79,6.41-.74,14-.46,15.36,8.36a9.56,9.56,0,0,1-2.54,8.11c2.83,2.43,4.3,5.07,4.37,7.9a9.61,9.61,0,0,1-2.23,6.14,9.2,9.2,0,0,1,2.85,8.81,10.85,10.85,0,0,1-3.4,5.93,5.52,5.52,0,0,1,1.41,3.83c-.12,4.3-5.31,8.6-12.34,10.22C671,419.4,638.58,419.54,630,419.54Zm-3.84-39.34,4,34.38c8.67,0,40.39-.16,48.26-2,5.6-1.29,8.47-4.24,8.51-5.53,0-.49-.92-1.1-2.32-1.51a2.47,2.47,0,0,1,.47-4.84c1.7-.16,3.5-2.1,3.93-4.24.31-1.55,0-3.73-3-5.32a2.48,2.48,0,0,1-.29-4.21s2.61-2,2.53-4.35-2.61-4.41-4.72-5.77a2.48,2.48,0,0,1,.1-4.24c.13-.07,3.38-2.05,2.86-5.32-.4-2.47-.84-5.26-9.9-4.21-1.74.2-3.58.48-5.36.76-6.62,1-11.84,1.84-14.6-.64a4.83,4.83,0,0,1-1.55-4,34.46,34.46,0,0,1,1.06-5.78c1.33-5.68,3.15-13.45-.58-18.61-1.45-2-2.87-3.09-3.73-2.81a3.14,3.14,0,0,0-1.61,2.27c.15,1.31,1.33,13.54-6,22-3.08,3.53-4.83,8.16-6.37,12.24s-2.79,7.38-5.15,8.94A21.41,21.41,0,0,1,626.11,380.2ZM660,359.63Z"/><path class="cls-9" d="M716.05,677.78s31.76,69.23,48.43,97.9c0,0,3.31,18.05,0,23.72l-2.82,1.26,13.16-.4s1.17-24.27.26-25.62a3.35,3.35,0,0,0-2.74-1.27s-5.65-44.72-22-54.27L734.5,664.53Z"/><path class="cls-10" d="M756,804.06c0,.31,10.28.17,15.88.07a4.45,4.45,0,0,0,4.27-3.51l4.22-22.2a4,4,0,0,0-3-4.64l-2.36-.54s-3.36,4.62-2.3,9,2,15.6-.68,16.92-10.37,1.54-10.37,1.54S756.21,801.2,756,804.06Z"/><path class="cls-11" d="M685.94,804.46a1.16,1.16,0,0,0,.58,2.17c9.37-.09,30.35-.39,32.21-1.17,2.41-1-.87-9.65-4.33-12.57l-19.08,6.23Z"/><path class="cls-12" d="M680,673.36s20.53,99.3,26.34,118.68l-13.74,8.62s6.89-1.17,12-1.54,9.8-6.23,9.8-6.23l-1.65-2.63s-5.14-98.76-3.89-110Z"/><path class="cls-13" d="M629.06,441.73s-2.83,51.66,44.2,78.06l-11.33,25.82s-42.58-25.75-41-96a8.19,8.19,0,0,0-2-5.5l-9-10.5a16.21,16.21,0,0,1-3.45-14.55l1.19-4.76a2.46,2.46,0,0,1,3.63-1.53l1,.55A16.61,16.61,0,0,1,619,420.9l4.44,9.93a9.56,9.56,0,0,0,9.54,5.62l2.75-.24Z"/><path class="cls-14" d="M671.62,515.92c7.87,2.18,34.52,9.19,51.17,8.9l-10.22,57.66.81,9.4-33.31-.14S670.69,570,663.29,559.1c-2.13-3.14-.54-6.88.67-10.47l-1.67-1.11a4.54,4.54,0,0,1-1.79-5.18l8.11-24.82A2.47,2.47,0,0,1,671.62,515.92Z"/><path class="cls-15" d="M677.4,586.81l.65,5.7s-9.41,28.19,4.71,94c0,0,30.59,8.67,55.72-12.07,0,0-7.09-62.15-9-65-9.64-14.42-16.07-17.56-16.07-17.56l-.29-6.22S686.21,590.52,677.4,586.81Z"/><path class="cls-16" d="M690.44,520.56c-.12-.15,6.95-21.35,6.95-21.35l10.13.92,4,24S695.61,527.38,690.44,520.56Z"/><path class="cls-17" d="M705.1,465.79c-.68.42-21.65,9.08-17.14,30.85a4.1,4.1,0,0,0,2.32,2.92,35.55,35.55,0,0,0,17.63,2.91c11-1.11,18.18-20.28,17.88-25.86S711.79,461.62,705.1,465.79Z"/><path class="cls-18" d="M711.48,457.32c-.55.08-12.12,4.1-6.38,12.49s7.89,13.31,5.17,17c-2.47,3.35-7.94,1.44-7.47,8.42a3.9,3.9,0,0,1-1.66,3.54c-5.16,3.49-17.75,14.24-5.28,29.57a3.92,3.92,0,0,1,.44,4.37c-3.65,6.55-11.33,25.75,16.45,36.39,27.46,10.53,37.37-7.42,40.14-14.59a3.81,3.81,0,0,1,3.78-2.42c3,.14,7.29-.36,7.1-4.39-.12-2.45-1.65-4.65-3.46-6.41a3.83,3.83,0,0,1,.74-6,7.47,7.47,0,0,0,3.7-4.65c1.66-6.16-1.66-24.6-19.32-27.72a4.18,4.18,0,0,1-3.24-3.12v-.07a3.85,3.85,0,0,1,1.42-3.76c2.82-2.06,6.44-6.23,3.5-12.91a14.44,14.44,0,0,0-11.32-8.56,3.85,3.85,0,0,1-3.15-4.6C733.88,464,732.79,454.53,711.48,457.32Z"/><path class="cls-19" d="M347.15,814a3.93,3.93,0,0,1-4-3L280.4,478.68a3.67,3.67,0,0,1,3.31-4.15,4,4,0,0,1,4.65,3l62.78,332.29a3.67,3.67,0,0,1-3.31,4.16A5.31,5.31,0,0,1,347.15,814Z"/><path class="cls-20" d="M135.38,814a4.4,4.4,0,0,1-.8-.07,3.64,3.64,0,0,1-3.16-4.25l74-328a4,4,0,0,1,4.75-2.83,3.64,3.64,0,0,1,3.16,4.25l-74,328A4,4,0,0,1,135.38,814Z"/><path class="cls-21" d="M299.25,560.8H192a3.63,3.63,0,1,1,0-7.21H299.25a3.63,3.63,0,1,1,0,7.21Z"/><path class="cls-22" d="M297.31,560.8H193.93a3.62,3.62,0,1,1,0-7.21H297.31a3.62,3.62,0,1,1,0,7.21Z"/><path class="cls-23" d="M299.25,620.89H192a3.63,3.63,0,1,1,0-7.21H299.25a3.63,3.63,0,1,1,0,7.21Z"/><path class="cls-24" d="M309,620.89h-130a3.63,3.63,0,1,1,0-7.21H309a3.63,3.63,0,1,1,0,7.21Z"/><path class="cls-25" d="M299.25,681H192a3.63,3.63,0,1,1,0-7.21H299.25a3.63,3.63,0,1,1,0,7.21Z"/><path class="cls-26" d="M321.42,681H165.75a3.63,3.63,0,1,1,0-7.21H321.42a3.63,3.63,0,1,1,0,7.21Z"/><path class="cls-27" d="M299.25,741.05h-146a3.63,3.63,0,1,1,0-7.21h146a3.63,3.63,0,1,1,0,7.21Z"/><path class="cls-28" d="M331.46,741.05H153.23a3.63,3.63,0,1,1,0-7.21H331.46a3.63,3.63,0,1,1,0,7.21Z"/><path class="cls-29" d="M202.75,539.34s-2.62,4.13-3.28,15.68a1.89,1.89,0,0,0,1.87,2h20.48a1.2,1.2,0,0,0,1.14-1.59c-1.2-3.55-4.82-12.21-12.92-17.16Z"/><path class="cls-30" d="M201.86,531.52l1.16,9.71a1.83,1.83,0,0,0,1.59,1.6,16.17,16.17,0,0,0,4.33,0,3,3,0,0,0,2.47-3v-9.37Z"/><path class="cls-31" d="M253.41,538.27a28.66,28.66,0,0,0-3.84,14.46,3.61,3.61,0,0,0,3.64,3.53H285a1.52,1.52,0,0,0,.87-2.76c-6-4.23-17.84-12.12-26.4-15.23Z"/><path class="cls-32" d="M250.13,527.79l2.47,12a2.49,2.49,0,0,0,2.93,2,9.13,9.13,0,0,0,2.79-1.17,2.85,2.85,0,0,0,1.27-2.9L257,523.13Z"/><path class="cls-33" d="M206.4,361.05s-8.59,7.57-10.21,16.68,4.58,157.18,4.58,157.18,8.59,1.43,13-1.26c0,0,5.26-96.09,9.25-118.29,0,0,20.93,99.54,26.73,117.52,0,0,8.27,1,10.94-.57,0,0-5.48-129-12.37-152Z"/><path class="cls-34" d="M222.78,412.21a.9.9,0,0,1-.88-.68l-3.56-13.65L210.76,393a.91.91,0,0,1,1-1.54l7.88,5.06a.91.91,0,0,1,.39.53l3.65,14a.91.91,0,0,1-.65,1.11Z"/><path class="cls-35" d="M291.15,275.5c-36.16-3-45.61,4.48-45.61,4.48l17.38,27.43s35.53-.71,61-20.33a62.22,62.22,0,0,1-10.19-15.21A47.88,47.88,0,0,1,291.15,275.5Z"/><path class="cls-36" d="M347.77,222.43a1.11,1.11,0,0,0-2.11-.43L341,231.85a10.32,10.32,0,0,0-.82,6.1l1.62,5.73a9.87,9.87,0,0,1-2,7.87c-4.24,5.3-13.27,15-26.12,20.32a62.22,62.22,0,0,0,10.19,15.21A62.28,62.28,0,0,0,345.6,257a4.85,4.85,0,0,0,3.42-4.81Z"/><path class="cls-37" d="M303.05,291.4c-12.73-13.72-37-19.91-51-22.46a12.88,12.88,0,0,0-14.39,8.17c-6.31,17-23.49,61.15-26.82,68.74-2.74,6.23-5.59,12.32-7.4,16.12a4.56,4.56,0,0,0,2.13,6.08c11.81,5.7,33.06,12.14,41.67,14.65a3,3,0,0,0,3.79-2.84,9.27,9.27,0,0,1,1.31-4.76L285,320.73c20.34,22.55,38.14,24.61,51.82,19.68A102.75,102.75,0,0,1,332.26,319C312.05,315.58,303.05,291.4,303.05,291.4Z"/><path class="cls-38" d="M365.66,315.26,362,310.39c-11.81,8.11-21.68,10-29.76,8.65a102.75,102.75,0,0,0,4.52,21.37C354.81,333.91,365.66,315.26,365.66,315.26Z"/><path class="cls-39" d="M363.09,315.34l20.55.81,18.92-10.57c-2.72-1.7-18.07,1.78-18.07,1.78s-16.06-2.43-20.4-2.44c-3.61,0-3.1,5.19-2.82,6.95.06.35.11.57.11.57Z"/><path class="cls-40" d="M271.35,243.75l-10.84,26.46S273,278.83,283,278l5.41-23.79Z"/><path class="cls-41" d="M289.66,225.72c.25.35,7.85,27.79,7.85,27.79l-15.76,4-11.06-24.93S285.51,219.83,289.66,225.72Z"/><path class="cls-42" d="M276.62,236.36l4.8,13.59a1.83,1.83,0,0,0,.25.48c.65.93,3.12,3.94,6.05,1.23,2.66-2.47,5.13-4.68,7.4-5.08a2,2,0,0,1,2.29,1.44,86.9,86.9,0,0,1,2.65,13.24,2,2,0,0,1-1.63,2.16,64.68,64.68,0,0,1-15.05,1.26,2,2,0,0,1-1.7-1.17c-1.5-3.28-6.1-13.24-7.81-15.81-1.61-2.42-5.54-2.35-7.19-2.21a2,2,0,0,1-1.49-.48c-1.44-1.27-4.19-4.5-.32-8.37a2,2,0,0,0-.05-2.9c-1.66-1.56-3.44-4.33-.67-7.76s6.52-2.94,8.8-2.11a2,2,0,0,0,2.42-.89,1.59,1.59,0,0,1,1.64-.77,2,2,0,0,0,2.12-2,6,6,0,0,1,4.64-6.26c6.88-2.15,11.18,4.5,11.6,9.47s-7.17,6.86-11.64,6.52c-3.39-.25-5.91,3.11-6.93,4.74A2,2,0,0,0,276.62,236.36Z"/><path class="cls-43" d="M275.66,252.63s-1.11-8.62-4.69-9-7.07,2.52-3.51,7.36C271.89,257,275.66,252.63,275.66,252.63Z"/><path class="cls-44" d="M355.77,200.3l187-1.18a7.46,7.46,0,0,1,7.72,7.27l-.78,97a7.49,7.49,0,0,1-7.91,7.15l-185-5.22a7.45,7.45,0,0,1-7.44-7.12l-1.24-90.62A7.46,7.46,0,0,1,355.77,200.3Z"/><path class="cls-4" d="M542,304.63l-185-5.22a1.3,1.3,0,0,1-1.28-1.26l-1.24-90.62a1.22,1.22,0,0,1,.39-.93,1.35,1.35,0,0,1,.92-.36l187-1.18a1.31,1.31,0,0,1,.93.36,1.26,1.26,0,0,1,.4.92l-.79,97A1.31,1.31,0,0,1,542,304.63Zm.78-99v.61l-187,1.18L357,298.13l.1.06,185,5.22.87-97.08Z"/><path class="cls-4" d="M366.55,219.65c0,3.13,1.94,5.67,4.34,5.67H530c2.39,0,4.33-2.54,4.33-5.67S532.34,214,530,214H370.89C368.49,214,366.55,216.52,366.55,219.65Z"/><path class="cls-4" d="M367.33,231.3h67a4.16,4.16,0,0,1,4.29,4v51.93a4.18,4.18,0,0,1-4.41,4l-65.6-1.71a4.16,4.16,0,0,1-4.17-3.92L363,235.43A4.16,4.16,0,0,1,367.33,231.3Z"/><path class="cls-4" d="M452.57,232.57h74.75a3.43,3.43,0,0,1,0,6.8H452.57a3.43,3.43,0,0,1,0-6.8Z"/><path class="cls-4" d="M449.62,250.52a3.19,3.19,0,0,0,2.94,3.39h74.77a3.19,3.19,0,0,0,2.94-3.39v-2.1a3.18,3.18,0,0,0-3-3.39l-74.76,2.1A3.21,3.21,0,0,0,449.62,250.52Z"/></svg>