<svg id="Layer_1" data-name="Layer 1" xmlns="http://www.w3.org/2000/svg" viewBox="0 0 142.6 66.06"><defs><style>.cls-1{fill:#fff;}</style></defs><path class="cls-1" d="M13.45,40V28.56H9.29v-7h4.16V14.7h8v6.88h5.1v7h-5.1v9.16a2.28,2.28,0,0,0,2.24,2.56,3.11,3.11,0,0,0,2-.63l1.56,6c-1,.94-3,1.67-5.93,1.67C16.21,47.36,13.45,44.81,13.45,40Z"/><path class="cls-1" d="M44.2,43.89C42.64,45.77,39.62,47,36.39,47c-3.85,0-8.64-2.61-8.64-8.28,0-6.1,4.79-7.92,8.64-7.92,3.34,0,6.3,1,7.81,2.92V30.56c0-2.19-1.87-3.65-5.1-3.65A11.2,11.2,0,0,0,32,29.57L29.1,24.52a17.75,17.75,0,0,1,11.41-3.91c6,0,11.72,2.24,11.72,10.05V46.39h-8Zm0-6.2c-.83-1.14-2.7-1.77-4.47-1.77-2.14,0-4,.94-4,2.92s1.87,2.92,4,2.92c1.77,0,3.64-.63,4.47-1.83Z"/><path class="cls-1" d="M113.18,23.93a3.58,3.58,0,0,1,4.22-4.21,3.54,3.54,0,0,1,2.82,2.82,3.59,3.59,0,1,1-7,1.39Z"/><rect class="cls-1" x="112.87" y="27.98" width="7.83" height="18.86"/><path class="cls-1" d="M127.56,39.88V28.48h-4.17v-7h4.17V14.62h8V21.5h5.1v7h-5.1v9.16a2.28,2.28,0,0,0,2.24,2.56,3.14,3.14,0,0,0,2-.63l1.56,6c-1,.94-3,1.67-5.94,1.67C130.32,47.28,127.56,44.73,127.56,39.88Z"/><polygon class="cls-1" points="97.06 30.43 119.81 2.02 108.22 2.02 87.33 27.95 87.58 13.6 78.01 13.6 78.26 46.59 84.07 46.66 91.38 37.53 96.64 46.59 108.98 46.84 97.65 29.97 97.06 30.43"/><polygon class="cls-1" points="65.15 49.78 15.37 61.87 4.12 15.52 53.89 3.43 57.86 19.77 59.04 16.69 55.41 0.94 1.63 14 13.86 64.36 67.64 51.3 65.15 49.78"/><path class="cls-1" d="M56.37,38a15.7,15.7,0,0,0,8.85,3.33c2.4,0,3.39-.78,3.39-1.88,0-1.3-1.72-1.77-4.33-2.18C60,36.53,54,35.64,54,29.24,54,24.81,57.77,21,64.75,21a17.69,17.69,0,0,1,10.52,3.34L72.2,29.6a11.23,11.23,0,0,0-7.4-2.76c-1.87,0-3.17.62-3.17,1.72s1.35,1.56,4,2c4.27.73,10.62,1.77,10.62,8.44,0,4.79-4.22,8.33-11.46,8.33-4.47,0-9.11-1.51-11.77-3.85Z"/></svg>